# xmcd
#
# Track frame offsets: 
#        150
#        18132
#        40357
#        58257
#        78620
#        98957
#        117804
#        139631
#        157596
#        173829
#        191204
#        218859
#        237165
#        255010
#
# Disc length: 3650 seconds
#
# Revision: 0
# Processed by: cddbd v1.5.2PL0 Copyright (c) Steve Scherf et al.
# Submitted via: ExactAudioCopy v0.99pb2
#
DISCID=b10e400e
DTITLE=Various Artist - R&B CD1
DYEAR=1900
DGENRE=
TTITLE0=Don't let the sun catch you crying
TTITLE1=Say It Loud
TTITLE2=I Heard It Through The Grapevine
TTITLE3=Never Too Much
TTITLE4=My Cherie Amour
TTITLE5=Stop!In The Name of Love
TTITLE6=Back Up Train
TTITLE7=My Girl
TTITLE8=Think
TTITLE9=Reach Out I'll Be There
TTITLE10=Something In Common
TTITLE11=I'll Make Love To You
TTITLE12=Being With You
TTITLE13=Shine On
EXTD=
EXTT0=
EXTT1=
EXTT2=
EXTT3=
EXTT4=
EXTT5=
EXTT6=
EXTT7=
EXTT8=
EXTT9=
EXTT10=
EXTT11=
EXTT12=
EXTT13=
PLAYORDER=
